<?xml version="1.0" encoding="utf-8"?><svg xmlns="http://www.w3.org/2000/svg" xmlns:xlink="http://www.w3.org/1999/xlink" width="3000" height="1074" preserveAspectRatio="xMidYMid" viewBox="0 0 3000 1074" style="z-index:1;margin-right:-2px;display:block;background-repeat-y:initial;background-repeat-x:initial;background-color:rgb(197, 131, 255);animation-play-state:paused" ><g transform="translate(1500,537) scale(1,1) translate(-1500,-537)" style="transform:matrix(1, 0, 0, 1, 0, 0);animation-play-state:paused" ><path id="path0" d="M 422.8711109306215 664.901853360149
c 0 30.60713106735331 -7.488978878182192 8.79140998743127 -16.28038886561346 8.79140998743127
S 390.31033319939456 695.5089844275022 390.31033319939456 664.901853360149
s 7.488978878182192 -8.79140998743127 16.28038886561346 -8.79140998743127
S 422.8711109306215 634.2947222927957 422.8711109306215 664.901853360149
z" fill="none" stroke="none" style="animation-play-state:paused" ></path>


<circle cx="0" cy="0" r="11.461051268402457" fill="#e8da8d" opacity="0.9" transform="translate(407.1212463378906 673.7194213867188)" style="opacity:0.9;animation-play-state:paused" ></circle>
<path id="path1" d="M 1549.7135236738222 81.30212232745555
c 0 25.66339187403635 -6.279340564923787 7.371399793606186 -13.650740358529973 7.371399793606186
S 1522.4120429567624 106.9655142014919 1522.4120429567624 81.30212232745555
s 6.279340564923787 -7.371399793606186 13.650740358529973 -7.371399793606186
S 1549.7135236738222 55.6387304534192 1549.7135236738222 81.30212232745555
z" fill="none" stroke="none" style="animation-play-state:paused" ></path>


<circle cx="0" cy="0" r="8.972637785032173" fill="#f4a358" opacity="0.9" transform="translate(1549.506103515625 74.52873992919922)" style="opacity:0.9;animation-play-state:paused" ></circle>
<path id="path2" d="M 1757.4410768104028 67.80929459247338
c 0 20.25422863489191 -4.955821900026743 5.817703969596612 -10.773525869623356 5.817703969596612
S 1735.894025071156 88.0635232273653 1735.894025071156 67.80929459247338
s 4.955821900026743 -5.817703969596612 10.773525869623356 -5.817703969596612
S 1757.4410768104028 47.55506595758147 1757.4410768104028 67.80929459247338
z" fill="none" stroke="none" style="animation-play-state:paused" ></path>


<circle cx="0" cy="0" r="8.042858414082318" fill="#e8614c" opacity="0.9" transform="translate(1735.9256591796875 65.21310424804688)" style="opacity:0.9;animation-play-state:paused" ></circle>
<path id="path3" d="M 2736.7653701252093 738.6624781214517
c 0 21.838896375246893 -5.343559751390196 6.272874490762406 -11.616434242152602 6.272874490762406
S 2713.5325016409042 760.5013744966986 2713.5325016409042 738.6624781214517
s 5.343559751390196 -6.272874490762406 11.616434242152602 -6.272874490762406
S 2736.7653701252093 716.8235817462048 2736.7653701252093 738.6624781214517
z" fill="none" stroke="none" style="animation-play-state:paused" ></path>


<circle cx="0" cy="0" r="7.643932002129157" fill="#e8614c" opacity="0.9" transform="translate(2721.75634765625 746.221923828125)" style="opacity:0.9;animation-play-state:paused" ></circle>
<path id="path4" d="M 658.3909334812838 832.423150589683
c 0 36.323446917395465 -8.887651905320165 10.433330497549761 -19.320982402869927 10.433330497549761
S 619.7489686755439 868.7465975070785 619.7489686755439 832.423150589683
s 8.887651905320165 -10.433330497549761 19.320982402869927 -10.433330497549761
S 658.3909334812838 796.0997036722875 658.3909334812838 832.423150589683
z" fill="none" stroke="none" style="animation-play-state:paused" ></path>


<circle cx="0" cy="0" r="8.288887514536228" fill="#e8614c" opacity="0.9" transform="translate(658.384765625 834.0272216796875)" style="opacity:0.9;animation-play-state:paused" ></circle>
<path id="path5" d="M 2179.9354148804537 236.46038500057415
c 0 25.12218871473506 -6.146918515307514 7.215947822317518 -13.362866337625032 7.215947822317518
S 2153.209682205204 261.5825737153092 2153.209682205204 236.46038500057415
s 6.146918515307514 -7.215947822317518 13.362866337625032 -7.215947822317518
S 2179.9354148804537 211.3381962858391 2179.9354148804537 236.46038500057415
z" fill="none" stroke="none" style="animation-play-state:paused" ></path>


<circle cx="0" cy="0" r="10.542449743561065" fill="#e8614c" opacity="0.9" transform="translate(2171.306884765625 227.15347290039062)" style="opacity:0.9;animation-play-state:paused" ></circle>
<path id="path6" d="M 1326.5329351978748 26.675050463885643
c 0 23.282639904426944 -5.696816146827869 6.687566781058804 -12.384382927886673 6.687566781058804
S 1301.7641693421015 49.95769036831258 1301.7641693421015 26.675050463885643
s 5.696816146827869 -6.687566781058804 12.384382927886673 -6.687566781058804
S 1326.5329351978748 3.3924105594586997 1326.5329351978748 26.675050463885643
z" fill="none" stroke="none" style="animation-play-state:paused" ></path>


<circle cx="0" cy="0" r="9.495571591354054" fill="#e8da8d" opacity="0.9" transform="translate(1325.5921630859375 37.39143753051758)" style="opacity:0.9;animation-play-state:paused" ></circle>
<path id="path7" d="M 429.20237094308425 283.5068783993181
c 0 25.857284726357154 -6.326782433044834 7.427092421400459 -13.753874854445293 7.427092421400459
S 401.6946212341936 309.36416312567525 401.6946212341936 283.5068783993181
s 6.326782433044834 -7.427092421400459 13.753874854445293 -7.427092421400459
S 429.20237094308425 257.649593672961 429.20237094308425 283.5068783993181
z" fill="none" stroke="none" style="animation-play-state:paused" ></path>


<circle cx="0" cy="0" r="6.517841079191037" fill="#f4a358" opacity="0.9" transform="translate(409.70556640625 293.7890930175781)" style="opacity:0.9;animation-play-state:paused" ></circle>
<path id="path8" d="M 1496.6947957837415 1011.5344860849052
c 0 20.064796423880697 -4.909471465417617 5.763292589838073 -10.67276405525569 5.763292589838073
S 1475.3492676732303 1031.599282508786 1475.3492676732303 1011.5344860849052
s 4.909471465417617 -5.763292589838073 10.67276405525569 -5.763292589838073
S 1496.6947957837415 991.4696896610245 1496.6947957837415 1011.5344860849052
z" fill="none" stroke="none" style="animation-play-state:paused" ></path>


<circle cx="0" cy="0" r="6.516129299384632" fill="#294b59" opacity="0.9" transform="translate(1475.35498046875 1010.4435424804688)" style="opacity:0.9;animation-play-state:paused" ></circle>
<path id="path9" d="M 1936.3914241562975 20.719344178765798
c 0 30.617837853416066 -7.491598623708185 8.794485340874829 -16.286083964583014 8.794485340874829
S 1903.8192562271315 51.337182032181865 1903.8192562271315 20.719344178765798
s 7.491598623708185 -8.794485340874829 16.286083964583014 -8.794485340874829
S 1936.3914241562975 -9.898493674650268 1936.3914241562975 20.719344178765798
z" fill="none" stroke="none" style="animation-play-state:paused" ></path>


<circle cx="0" cy="0" r="6.34490432799426" fill="#e8614c" opacity="0.9" transform="translate(1936.0782470703125 11.835647583007812)" style="opacity:0.9;animation-play-state:paused" ></circle>
<path id="path10" d="M 636.3892523460668 286.44963758040694
c 0 36.08216473420735 -8.82861477539116 10.364026040676581 -19.19264081606774 10.364026040676581
S 598.0039707139313 322.5318023146143 598.0039707139313 286.44963758040694
s 8.82861477539116 -10.364026040676581 19.19264081606774 -10.364026040676581
S 636.3892523460668 250.36747284619958 636.3892523460668 286.44963758040694
z" fill="none" stroke="none" style="animation-play-state:paused" ></path>


<circle cx="0" cy="0" r="8.209743365507482" fill="#f4a358" opacity="0.9" transform="translate(598.238525390625 277.7437744140625)" style="opacity:0.9;animation-play-state:paused" ></circle>
<path id="path11" d="M 1196.7724894236262 578.4520166996517
c 0 25.317588727019526 -6.194729156611159 7.272073357760927 -13.466802514372088 7.272073357760927
S 1169.838884394882 603.7696054266712 1169.838884394882 578.4520166996517
s 6.194729156611159 -7.272073357760927 13.466802514372088 -7.272073357760927
S 1196.7724894236262 553.1344279726322 1196.7724894236262 578.4520166996517
z" fill="none" stroke="none" style="animation-play-state:paused" ></path>


<circle cx="0" cy="0" r="6.806972352240881" fill="#e8614c" opacity="0.9" transform="translate(1195.48828125 566.1561889648438)" style="opacity:0.9;animation-play-state:paused" ></circle>
<path id="path12" d="M 2625.65176410072 436.57273196948273
c 0 25.47166474582481 -6.232428608020964 7.316329235502872 -13.548757843523836 7.316329235502872
S 2598.5542484136727 462.0443967153075 2598.5542484136727 436.57273196948273
s 6.232428608020964 -7.316329235502872 13.548757843523836 -7.316329235502872
S 2625.65176410072 411.10106722365794 2625.65176410072 436.57273196948273
z" fill="none" stroke="none" style="animation-play-state:paused" ></path>


<circle cx="0" cy="0" r="5.936141263151612" fill="#294b59" opacity="0.9" transform="translate(2598.86962890625 444.53411865234375)" style="opacity:0.9;animation-play-state:paused" ></circle>
<path id="path13" d="M 2858.4456549408837 661.3881873270919
c 0 35.302904723909315 -8.637944772871426 10.140196037718633 -18.77814081059006 10.140196037718633
S 2820.8893733197033 696.6910920510013 2820.8893733197033 661.3881873270919
s 8.637944772871426 -10.140196037718633 18.77814081059006 -10.140196037718633
S 2858.4456549408837 626.0852826031826 2858.4456549408837 661.3881873270919
z" fill="none" stroke="none" style="animation-play-state:paused" ></path>


<circle cx="0" cy="0" r="6.398209063774237" fill="#294b59" opacity="0.9" transform="translate(2858.26513671875 669.0845336914062)" style="opacity:0.9;animation-play-state:paused" ></circle>
<path id="path14" d="M 1082.332513854595 508.09409423012534
c 0 34.732724125206566 -8.498432498720755 9.976420759367842 -18.474853258088597 9.976420759367842
S 1045.3828073384177 542.8268183553319 1045.3828073384177 508.09409423012534
s 8.498432498720755 -9.976420759367842 18.474853258088597 -9.976420759367842
S 1082.332513854595 473.36137010491876 1082.332513854595 508.09409423012534
z" fill="none" stroke="none" style="animation-play-state:paused" ></path>


<circle cx="0" cy="0" r="11.122299304360832" fill="#f4a358" opacity="0.9" transform="translate(1046.2315673828125 494.28314208984375)" style="opacity:0.9;animation-play-state:paused" ></circle>
<path id="path15" d="M 2931.18695097346 463.96610963999416
c 0 31.257949720985568 -7.648221740241149 8.978347260283089 -16.62656900052424 8.978347260283089
S 2897.9338129724115 495.2240593609797 2897.9338129724115 463.96610963999416
s 7.648221740241149 -8.978347260283089 16.62656900052424 -8.978347260283089
S 2931.18695097346 432.7081599190086 2931.18695097346 463.96610963999416
z" fill="none" stroke="none" style="animation-play-state:paused" ></path>


<circle cx="0" cy="0" r="9.706489914603702" fill="#294b59" opacity="0.9" transform="translate(2897.959228515625 461.0418701171875)" style="opacity:0.9;animation-play-state:paused" ></circle>
<path id="path16" d="M 1969.591359195252 323.43238622300277
c 0 28.577045925400387 -6.992255917917115 8.208300425380962 -15.200556343298077 8.208300425380962
S 1939.1902465086557 352.00943214840316 1939.1902465086557 323.43238622300277
s 6.992255917917115 -8.208300425380962 15.200556343298077 -8.208300425380962
S 1969.591359195252 294.85534029760237 1969.591359195252 323.43238622300277
z" fill="none" stroke="none" style="animation-play-state:paused" ></path>


<circle cx="0" cy="0" r="6.669239180838217" fill="#e8614c" opacity="0.9" transform="translate(1969.5755615234375 321.2643127441406)" style="opacity:0.9;animation-play-state:paused" ></circle>
<path id="path17" d="M 1524.068299101272 132.87246152451766
c 0 31.63463036539903 -7.740388280895506 9.08654276452951 -16.826931045425017 9.08654276452951
S 1490.414437010422 164.5070918899167 1490.414437010422 132.87246152451766
s 7.740388280895506 -9.08654276452951 16.826931045425017 -9.08654276452951
S 1524.068299101272 101.23783115911863 1524.068299101272 132.87246152451766
z" fill="none" stroke="none" style="animation-play-state:paused" ></path>


<circle cx="0" cy="0" r="8.257334304114973" fill="#294b59" opacity="0.9" transform="translate(1496.6019287109375 117.2476806640625)" style="opacity:0.9;animation-play-state:paused" ></circle>
<path id="path18" d="M 713.8973128049673 596.398812716523
c 0 32.64931626005705 -7.988662489162895 9.377995095973834 -17.36665758513673 9.377995095973834
S 679.1639976346938 629.0481289765801 679.1639976346938 596.398812716523
s 7.988662489162895 -9.377995095973834 17.36665758513673 -9.377995095973834
S 713.8973128049673 563.749496456466 713.8973128049673 596.398812716523
z" fill="none" stroke="none" style="animation-play-state:paused" ></path>


<circle cx="0" cy="0" r="8.167385888448734" fill="#2da88b" opacity="0.9" transform="translate(682.1837768554688 613.7130126953125)" style="opacity:0.9;animation-play-state:paused" ></circle>
<path id="path19" d="M 825.0165889013814 899.0374668052355
c 0 30.773293759722716 -7.529635707166196 8.839137569282057 -16.368773276448252 8.839137569282057
S 792.279042348485 929.8107605649582 792.279042348485 899.0374668052355
s 7.529635707166196 -8.839137569282057 16.368773276448252 -8.839137569282057
S 825.0165889013814 868.2641730455127 825.0165889013814 899.0374668052355
z" fill="none" stroke="none" style="animation-play-state:paused" ></path>


<circle cx="0" cy="0" r="8.120619689256387" fill="#e8614c" opacity="0.9" transform="translate(793.8424072265625 884.0869750976562)" style="opacity:0.9;animation-play-state:paused" ></circle>
<path id="path20" d="M 1654.1579222737319 365.47370213006116
c 0 24.471886375486697 -5.987801985491425 7.029158852533413 -13.016960838024838 7.029158852533413
S 1628.124000597682 389.94558850554785 1628.124000597682 365.47370213006116
s 5.987801985491425 -7.029158852533413 13.016960838024838 -7.029158852533413
S 1654.1579222737319 341.00181575457447 1654.1579222737319 365.47370213006116
z" fill="none" stroke="none" style="animation-play-state:paused" ></path>


<circle cx="0" cy="0" r="6.09206022382137" fill="#f4a358" opacity="0.9" transform="translate(1641.7896728515625 372.5511779785156)" style="opacity:0.9;animation-play-state:paused" ></circle>
<path id="path21" d="M 2006.8366179471273 234.71283953512977
c 0 27.19802816716181 -6.654836679199165 7.812199579929455 -14.467036259128621 7.812199579929455
S 1977.9025454288699 261.91086770229157 1977.9025454288699 234.71283953512977
s 6.654836679199165 -7.812199579929455 14.467036259128621 -7.812199579929455
S 2006.8366179471273 207.51481136796798 2006.8366179471273 234.71283953512977
z" fill="none" stroke="none" style="animation-play-state:paused" ></path>


<circle cx="0" cy="0" r="7.384718206866405" fill="#2da88b" opacity="0.9" transform="translate(1987.1741943359375 244.84231567382812)" style="opacity:0.9;animation-play-state:paused" ></circle>
<path id="path22" d="M 2008.1584405855274 130.34775951308015
c 0 27.06127964536171 -6.621376934503396 7.77292074919964 -14.394297683703037 7.77292074919964
S 1979.369845218121 157.40903915844186 1979.369845218121 130.34775951308015
s 6.621376934503396 -7.77292074919964 14.394297683703037 -7.77292074919964
S 2008.1584405855274 103.28647986771844 2008.1584405855274 130.34775951308015
z" fill="none" stroke="none" style="animation-play-state:paused" ></path>


<circle cx="0" cy="0" r="8.172026837704895" fill="#e8614c" opacity="0.9" transform="translate(1987.56884765625 141.26461791992188)" style="opacity:0.9;animation-play-state:paused" ></circle>
<path id="path23" d="M 2333.880362070429 834.0804409657227
c 0 19.30891698085132 -4.724522239995534 5.546178281733889 -10.270700521729424 5.546178281733889
S 2313.33896102697 853.389357946574 2313.33896102697 834.0804409657227
s 4.724522239995534 -5.546178281733889 10.270700521729424 -5.546178281733889
S 2333.880362070429 814.7715239848714 2333.880362070429 834.0804409657227
z" fill="none" stroke="none" style="animation-play-state:paused" ></path>


<circle cx="0" cy="0" r="8.204189312305893" fill="#e8614c" opacity="0.9" transform="translate(2329.11083984375 842.802734375)" style="opacity:0.9;animation-play-state:paused" ></circle>
<path id="path24" d="M 2041.3792395928601 868.8156323336899
c 0 30.461310705015013 -7.453299427822821 8.74952541527027 -16.20282484309309 8.74952541527027
S 2008.9735899066739 899.2769430387049 2008.9735899066739 868.8156323336899
s 7.453299427822821 -8.74952541527027 16.20282484309309 -8.74952541527027
S 2041.3792395928601 838.3543216286749 2041.3792395928601 868.8156323336899
z" fill="none" stroke="none" style="animation-play-state:paused" ></path>


<circle cx="0" cy="0" r="8.936692569512166" fill="#e8614c" opacity="0.9" transform="translate(2038.88525390625 884.8064575195312)" style="opacity:0.9;animation-play-state:paused" ></circle>
<path id="path25" d="M 2284.1537449933417 903.8325160138754
c 0 24.410866224301795 -5.97287152296746 7.011631787831367 -12.984503310798827 7.011631787831367
S 2258.1847383717436 928.2433822381772 2258.1847383717436 903.8325160138754
s 5.97287152296746 -7.011631787831367 12.984503310798827 -7.011631787831367
S 2284.1537449933417 879.4216497895736 2284.1537449933417 903.8325160138754
z" fill="none" stroke="none" style="animation-play-state:paused" ></path>


<circle cx="0" cy="0" r="10.039997942395855" fill="#e8614c" opacity="0.9" transform="translate(2259.562255859375 891.7155151367188)" style="opacity:0.9;animation-play-state:paused" ></circle>
<path id="path26" d="M 1225.0027939147035 68.59487346316334
c 0 26.73458567543452 -6.54144117590419 7.679083119539703 -14.220524295443893 7.679083119539703
S 1196.5617453238156 95.32945913859785 1196.5617453238156 68.59487346316334
s 6.54144117590419 -7.679083119539703 14.220524295443893 -7.679083119539703
S 1225.0027939147035 41.86028778772882 1225.0027939147035 68.59487346316334
z" fill="none" stroke="none" style="animation-play-state:paused" ></path>


<circle cx="0" cy="0" r="6.76642487179196" fill="#e8da8d" opacity="0.9" transform="translate(1196.6641845703125 73.73832702636719)" style="opacity:0.9;animation-play-state:paused" ></circle>
<path id="path27" d="M 417.97591415565466 833.8292203661642
c 0 33.71812031767138 -8.250178375600441 9.684992006139652 -17.935170381740093 9.684992006139652
S 382.1055733921745 867.5473406838356 382.1055733921745 833.8292203661642
s 8.250178375600441 -9.684992006139652 17.935170381740093 -9.684992006139652
S 417.97591415565466 800.1111000484929 417.97591415565466 833.8292203661642
z" fill="none" stroke="none" style="animation-play-state:paused" ></path>


<circle cx="0" cy="0" r="7.351335919158608" fill="#f4a358" opacity="0.9" transform="translate(391.5304260253906 819.5479736328125)" style="opacity:0.9;animation-play-state:paused" ></circle>
<path id="path28" d="M 958.2321646732833 871.277022185788
c 0 33.96226708777591 -8.309916415094106 9.755119269893083 -18.065035684987187 9.755119269893083
S 922.102093303309 905.2392892735639 922.102093303309 871.277022185788
s 8.309916415094106 -9.755119269893083 18.065035684987187 -9.755119269893083
S 958.2321646732833 837.3147550980121 958.2321646732833 871.277022185788
z" fill="none" stroke="none" style="animation-play-state:paused" ></path>


<circle cx="0" cy="0" r="7.076630508799651" fill="#2da88b" opacity="0.9" transform="translate(944.4237670898438 882.381103515625)" style="opacity:0.9;animation-play-state:paused" ></circle>
<path id="path29" d="M 494.60880323542074 1002.5935865969501
c 0 23.844645497669994 -5.8343281536852105 6.848993919543509 -12.68332207322872 6.848993919543509
S 469.24215908896326 1026.4382320946202 469.24215908896326 1002.5935865969501
s 5.8343281536852105 -6.848993919543509 12.68332207322872 -6.848993919543509
S 494.60880323542074 978.7489410992802 494.60880323542074 1002.5935865969501
z" fill="none" stroke="none" style="animation-play-state:paused" ></path>


<circle cx="0" cy="0" r="8.348518260040583" fill="#e8da8d" opacity="0.9" transform="translate(469.252197265625 1000.9498291015625)" style="opacity:0.9;animation-play-state:paused" ></circle>
<path id="path30" d="M 461.74264888793607 976.357800978334
c 0 22.333141846690904 -5.464492153977561 6.414838615538877 -11.87933076951644 6.414838615538877
S 437.98398734890316 998.6909428250249 437.98398734890316 976.357800978334
s 5.464492153977561 -6.414838615538877 11.87933076951644 -6.414838615538877
S 461.74264888793607 954.0246591316431 461.74264888793607 976.357800978334
z" fill="none" stroke="none" style="animation-play-state:paused" ></path>


<circle cx="0" cy="0" r="9.739286456277988" fill="#2da88b" opacity="0.9" transform="translate(461.136474609375 985.5364990234375)" style="opacity:0.9;animation-play-state:paused" ></circle>
<path id="path31" d="M 1615.3041743604206 722.826455920457
c 0 32.85681178395581 -8.039432670542379 9.437594874114968 -17.477027544657346 9.437594874114968
S 1580.3501192711058 755.6832677044127 1580.3501192711058 722.826455920457
s 8.039432670542379 -9.437594874114968 17.477027544657346 -9.437594874114968
S 1615.3041743604206 689.9696441365012 1615.3041743604206 722.826455920457
z" fill="none" stroke="none" style="animation-play-state:paused" ></path>


<circle cx="0" cy="0" r="6.568287318230292" fill="#2da88b" opacity="0.9" transform="translate(1591.975830078125 734.7381591796875)" style="opacity:0.9;animation-play-state:paused" ></circle>
<path id="path32" d="M 2352.6237235313856 719.9558581691069
c 0 21.99249329761347 -5.381141977075636 6.316992755697487 -11.698134732773122 6.316992755697487
S 2329.227454065839 741.9483514667204 2329.227454065839 719.9558581691069
s 5.381141977075636 -6.316992755697487 11.698134732773122 -6.316992755697487
S 2352.6237235313856 697.9633648714935 2352.6237235313856 719.9558581691069
z" fill="none" stroke="none" style="animation-play-state:paused" ></path>


<circle cx="0" cy="0" r="9.846516165617299" fill="#f4a358" opacity="0.9" transform="translate(2338.2490234375 712.8115234375)" style="opacity:0.9;animation-play-state:paused" ></circle>
<path id="path33" d="M 2413.7377329923124 458.5062390709515
c 0 25.47625715596859 -6.233552282843378 7.317648332033531 -13.551200614876908 7.317648332033531
S 2386.6353317625585 483.9824962269201 2386.6353317625585 458.5062390709515
s 6.233552282843378 -7.317648332033531 13.551200614876908 -7.317648332033531
S 2413.7377329923124 433.0299819149829 2413.7377329923124 458.5062390709515
z" fill="none" stroke="none" style="animation-play-state:paused" ></path>


<circle cx="0" cy="0" r="8.573496692957159" fill="#f4a358" opacity="0.9" transform="translate(2403.24267578125 450.25567626953125)" style="opacity:0.9;animation-play-state:paused" ></circle>
<path id="path34" d="M 2067.672375294748 1049.0489195077957
c 0 25.45566771407295 -6.228514440677422 7.311734343403932 -13.540248784081355 7.311734343403932
S 2040.591877726585 1074.5045872218686 2040.591877726585 1049.0489195077957
s 6.228514440677422 -7.311734343403932 13.540248784081355 -7.311734343403932
S 2067.672375294748 1023.5932517937227 2067.672375294748 1049.0489195077957
z" fill="none" stroke="none" style="animation-play-state:paused" ></path>


<circle cx="0" cy="0" r="6.585899557236134" fill="#e8614c" opacity="0.9" transform="translate(2051.20556640625 1040.8763427734375)" style="opacity:0.9;animation-play-state:paused" ></circle>
<path id="path35" d="M 419.2804799407943 245.02974347618672
c 0 35.89441537477547 -8.782676102338678 10.31009803318019 -19.092774135518866 10.31009803318019
S 381.09493166975653 280.9241588509622 381.09493166975653 245.02974347618672
s 8.782676102338678 -10.31009803318019 19.092774135518866 -10.31009803318019
S 419.2804799407943 209.13532810141126 419.2804799407943 245.02974347618672
z" fill="none" stroke="none" style="animation-play-state:paused" ></path>


<circle cx="0" cy="0" r="9.143040164682041" fill="#e8614c" opacity="0.9" transform="translate(419.0843200683594 253.08131408691406)" style="opacity:0.9;animation-play-state:paused" ></circle>
<path id="path36" d="M 554.3962016897201 801.9510038200175
c 0 24.451485783455208 -5.982810351270954 7.02329910801373 -13.006109459284685 7.02329910801373
S 528.3839827711508 826.4024896034726 528.3839827711508 801.9510038200175
s 5.982810351270954 -7.02329910801373 13.006109459284685 -7.02329910801373
S 554.3962016897201 777.4995180365623 554.3962016897201 801.9510038200175
z" fill="none" stroke="none" style="animation-play-state:paused" ></path>


<circle cx="0" cy="0" r="6.78265333124396" fill="#f4a358" opacity="0.9" transform="translate(553.8318481445312 811.4931030273438)" style="opacity:0.9;animation-play-state:paused" ></circle>
<path id="path37" d="M 1516.4219437214426 262.2546337534941
c 0 27.723350926115334 -6.7833730989431125 7.963090159628872 -14.746463258571985 7.963090159628872
S 1486.9290172042986 289.97798467960945 1486.9290172042986 262.2546337534941
s 6.7833730989431125 -7.963090159628872 14.746463258571985 -7.963090159628872
S 1516.4219437214426 234.53128282737876 1516.4219437214426 262.2546337534941
z" fill="none" stroke="none" style="animation-play-state:paused" ></path>


<circle cx="0" cy="0" r="8.174133501135833" fill="#e8da8d" opacity="0.9" transform="translate(1516.393798828125 265.1531677246094)" style="opacity:0.9;animation-play-state:paused" ></circle>
<path id="path38" d="M 2749.159290605217 483.8827957771376
c 0 22.212617708901433 -5.435002205369498 6.380219980216369 -11.815222185585867 6.380219980216369
S 2725.5288462340454 506.095413486039 2725.5288462340454 483.8827957771376
s 5.435002205369498 -6.380219980216369 11.815222185585867 -6.380219980216369
S 2749.159290605217 461.67017806823617 2749.159290605217 483.8827957771376
z" fill="none" stroke="none" style="animation-play-state:paused" ></path>


<circle cx="0" cy="0" r="7.122814575850632" fill="#294b59" opacity="0.9" transform="translate(2725.577392578125 487.177734375)" style="opacity:0.9;animation-play-state:paused" ></circle>
<path id="path39" d="M 1844.1679576309741 732.1693346246436
c 0 21.642745759677876 -5.295565451836075 6.21653335650322 -11.512098808339296 6.21653335650322
S 1821.1437600142956 753.8120803843215 1821.1437600142956 732.1693346246436
s 5.295565451836075 -6.21653335650322 11.512098808339296 -6.21653335650322
S 1844.1679576309741 710.5265888649658 1844.1679576309741 732.1693346246436
z" fill="none" stroke="none" style="animation-play-state:paused" ></path>


<circle cx="0" cy="0" r="8.063994540370397" fill="#e8614c" opacity="0.9" transform="translate(1821.6644287109375 740.7308959960938)" style="opacity:0.9;animation-play-state:paused" ></circle>
<path id="path40" d="M 1995.781195454507 791.6458105719047
c 0 28.234557133364948 -6.90845546880206 8.109925985115463 -15.018381453917524 8.109925985115463
S 1965.744432546672 819.8803677052697 1965.744432546672 791.6458105719047
s 6.90845546880206 -8.109925985115463 15.018381453917524 -8.109925985115463
S 1995.781195454507 763.4112534385397 1995.781195454507 791.6458105719047
z" fill="none" stroke="none" style="animation-play-state:paused" ></path>


<circle cx="0" cy="0" r="9.687968718830067" fill="#e8da8d" opacity="0.9" transform="translate(1965.7640380859375 794.1233520507812)" style="opacity:0.9;animation-play-state:paused" ></circle>
<path id="path41" d="M 786.5439483017844 633.3431414712596
c 0 23.97607753174313 -5.866487055639276 6.886745674011325 -12.753232729650602 6.886745674011325
S 761.0374828424833 657.3192190030028 761.0374828424833 633.3431414712596
s 5.866487055639276 -6.886745674011325 12.753232729650602 -6.886745674011325
S 786.5439483017844 609.3670639395165 786.5439483017844 633.3431414712596
z" fill="none" stroke="none" style="animation-play-state:paused" ></path>


<circle cx="0" cy="0" r="6.6267320362855635" fill="#e8614c" opacity="0.9" transform="translate(771.0879516601562 641.0113525390625)" style="opacity:0.9;animation-play-state:paused" ></circle>
<path id="path42" d="M 1805.9209926174037 228.74032964944783
c 0 23.748142931491966 -5.810715823662927 6.821275097343437 -12.631990921006365 6.821275097343437
S 1780.6570107753912 252.4884725809398 1780.6570107753912 228.74032964944783
s 5.810715823662927 -6.821275097343437 12.631990921006365 -6.821275097343437
S 1805.9209926174037 204.99218671795586 1805.9209926174037 228.74032964944783
z" fill="none" stroke="none" style="animation-play-state:paused" ></path>


<circle cx="0" cy="0" r="11.326512934312335" fill="#294b59" opacity="0.9" transform="translate(1781.3760986328125 218.65000915527344)" style="opacity:0.9;animation-play-state:paused" ></circle>
<path id="path43" d="M 1283.8147162163827 759.3808505665137
c 0 21.30995789256935 -5.214138633288245 6.120945352120984 -11.335083985409229 6.120945352120984
S 1261.1445482455642 780.6908084590831 1261.1445482455642 759.3808505665137
s 5.214138633288245 -6.120945352120984 11.335083985409229 -6.120945352120984
S 1283.8147162163827 738.0708926739443 1283.8147162163827 759.3808505665137
z" fill="none" stroke="none" style="animation-play-state:paused" ></path>


<circle cx="0" cy="0" r="10.772557948481259" fill="#e8614c" opacity="0.9" transform="translate(1270.8203125 752.91552734375)" style="opacity:0.9;animation-play-state:paused" ></circle>
<path id="path44" d="M 1982.7457495029437 649.0216884912508
c 0 33.880999223171216 -8.290031724818489 9.731776372613009 -18.021808097431496 9.731776372613009
S 1946.7021333080809 682.902687714422 1946.7021333080809 649.0216884912508
s 8.290031724818489 -9.731776372613009 18.021808097431496 -9.731776372613009
S 1982.7457495029437 615.1406892680795 1982.7457495029437 649.0216884912508
z" fill="none" stroke="none" style="animation-play-state:paused" ></path>


<circle cx="0" cy="0" r="7.167876225579984" fill="#f4a358" opacity="0.9" transform="translate(1971.2911376953125 636.3283081054688)" style="opacity:0.9;animation-play-state:paused" ></circle>
<path id="path45" d="M 1286.7908931492311 299.2420764982622
c 0 23.955075910087118 -5.861348360978762 6.880713293322896 -12.742061654301658 6.880713293322896
S 1261.306769840628 323.1971524083493 1261.306769840628 299.2420764982622
s 5.861348360978762 -6.880713293322896 12.742061654301658 -6.880713293322896
S 1286.7908931492311 275.28700058817503 1286.7908931492311 299.2420764982622
z" fill="none" stroke="none" style="animation-play-state:paused" ></path>


<circle cx="0" cy="0" r="9.911773715638827" fill="#e8da8d" opacity="0.9" transform="translate(1276.891357421875 306.9820556640625)" style="opacity:0.9;animation-play-state:paused" ></circle>
<path id="path46" d="M 2200.82506010998 746.6116793074007
c 0 31.78659943649815 -7.777572202547419 9.130193455164363 -16.90776565771178 9.130193455164363
S 2167.009528794556 778.3982787438988 2167.009528794556 746.6116793074007
s 7.777572202547419 -9.130193455164363 16.90776565771178 -9.130193455164363
S 2200.82506010998 714.8250798709025 2200.82506010998 746.6116793074007
z" fill="none" stroke="none" style="animation-play-state:paused" ></path>


<circle cx="0" cy="0" r="8.826851443531263" fill="#2da88b" opacity="0.9" transform="translate(2174.470947265625 731.9176635742188)" style="opacity:0.9;animation-play-state:paused" ></circle>
<path id="path47" d="M 1947.7186163023212 301.5678809859775
c 0 29.698485315498946 -7.266650662302933 8.530415994877357 -15.79706665718029 8.530415994877357
S 1916.1244829879606 331.26636630147647 1916.1244829879606 301.5678809859775
s 7.266650662302933 -8.530415994877357 15.79706665718029 -8.530415994877357
S 1947.7186163023212 271.8693956704786 1947.7186163023212 301.5678809859775
z" fill="none" stroke="none" style="animation-play-state:paused" ></path>


<circle cx="0" cy="0" r="7.572585095472353" fill="#e8da8d" opacity="0.9" transform="translate(1947.6993408203125 299.078857421875)" style="opacity:0.9;animation-play-state:paused" ></circle>
<path id="path48" d="M 557.945092363306 689.6246790682623
c 0 32.86245199430348 -8.040812722010424 9.439214934533977 -17.4800276565444 9.439214934533977
S 522.9850370502172 722.4871310625657 522.9850370502172 689.6246790682623
s 8.040812722010424 -9.439214934533977 17.4800276565444 -9.439214934533977
S 557.945092363306 656.7622270739588 557.945092363306 689.6246790682623
z" fill="none" stroke="none" style="animation-play-state:paused" ></path>


<circle cx="0" cy="0" r="10.731874644355207" fill="#f4a358" opacity="0.9" transform="translate(549.1026611328125 675.407470703125)" style="opacity:0.9;animation-play-state:paused" ></circle>
<path id="path49" d="M 1535.5127890885879 847.5812977046791
c 0 24.48770002917546 -5.99167128373442 7.033701072209973 -13.025372355944393 7.033701072209973
S 1509.462044376699 872.0689977338545 1509.462044376699 847.5812977046791
s 5.99167128373442 -7.033701072209973 13.025372355944393 -7.033701072209973
S 1535.5127890885879 823.0935976755036 1535.5127890885879 847.5812977046791
z" fill="none" stroke="none" style="animation-play-state:paused" ></path>


<circle cx="0" cy="0" r="11.021911348696849" fill="#294b59" opacity="0.9" transform="translate(1531.3836669921875 835.0303955078125)" style="opacity:0.9;animation-play-state:paused" ></circle>
<path id="path50" d="M 1661.0439453139443 896.5371762627155
c 0 22.299799269210887 -5.4563338637430885 6.4052614922201485 -11.861595355963237 6.4052614922201485
S 1637.3207546020176 918.8369755319264 1637.3207546020176 896.5371762627155
s 5.4563338637430885 -6.4052614922201485 11.861595355963237 -6.4052614922201485
S 1661.0439453139443 874.2373769935047 1661.0439453139443 896.5371762627155
z" fill="none" stroke="none" style="animation-play-state:paused" ></path>


<circle cx="0" cy="0" r="10.763903410941376" fill="#294b59" opacity="0.9" transform="translate(1637.3304443359375 895.0546264648438)" style="opacity:0.9;animation-play-state:paused" ></circle>
<path id="path51" d="M 1253.8766515847667 423.6631732966801
c 0 30.426310947768048 -7.444735657432607 8.739472293507843 -16.18420795094045 8.739472293507843
S 1221.508235682886 454.08948424444816 1221.508235682886 423.6631732966801
s 7.444735657432607 -8.739472293507843 16.18420795094045 -8.739472293507843
S 1253.8766515847667 393.23686234891204 1253.8766515847667 423.6631732966801
z" fill="none" stroke="none" style="animation-play-state:paused" ></path>


<circle cx="0" cy="0" r="8.831753539321388" fill="#e8da8d" opacity="0.9" transform="translate(1236.34375 432.567626953125)" style="opacity:0.9;animation-play-state:paused" ></circle>
<path id="path52" d="M 673.4528789736669 822.2540631553201
c 0 26.531833872554156 -6.491831692220696 7.620845899563427 -14.112677591784124 7.620845899563427
S 645.2275237900985 848.7858970278742 645.2275237900985 822.2540631553201
s 6.491831692220696 -7.620845899563427 14.112677591784124 -7.620845899563427
S 673.4528789736669 795.722229282766 673.4528789736669 822.2540631553201
z" fill="none" stroke="none" style="animation-play-state:paused" ></path>


<circle cx="0" cy="0" r="11.208724155937167" fill="#f4a358" opacity="0.9" transform="translate(671.3182983398438 836.1570434570312)" style="opacity:0.9;animation-play-state:paused" ></circle>
<path id="path53" d="M 1722.5352632837098 261.80677988243013
c 0 27.68423436976726 -6.77380202664518 7.951854553018255 -14.725656579663436 7.951854553018255
S 1693.0839501243831 289.4910142521974 1693.0839501243831 261.80677988243013
s 6.77380202664518 -7.951854553018255 14.725656579663436 -7.951854553018255
S 1722.5352632837098 234.12254551266287 1722.5352632837098 261.80677988243013
z" fill="none" stroke="none" style="animation-play-state:paused" ></path>


<circle cx="0" cy="0" r="7.0244581236315256" fill="#e8da8d" opacity="0.9" transform="translate(1722.5009765625 264.9884338378906)" style="opacity:0.9;animation-play-state:paused" ></circle>
<path id="path54" d="M 1472.1401142965203 659.8198943061001
c 0 30.49057178750705 -7.460459054390022 8.75793019428394 -16.218389248673965 8.75793019428394
S 1439.7033357991725 690.3104660936071 1439.7033357991725 659.8198943061001
s 7.460459054390022 -8.75793019428394 16.218389248673965 -8.75793019428394
S 1472.1401142965203 629.329322518593 1472.1401142965203 659.8198943061001
z" fill="none" stroke="none" style="animation-play-state:paused" ></path>


<circle cx="0" cy="0" r="8.552147583102364" fill="#2da88b" opacity="0.9" transform="translate(1472.0916748046875 655.8757934570312)" style="opacity:0.9;animation-play-state:paused" ></circle>
<path id="path55" d="M 2784.510123856604 383.1764983954373
c 0 22.32873831913091 -5.463414695106499 6.413573772516326 -11.876988467622825 6.413573772516326
S 2760.756146921358 405.50523671456824 2760.756146921358 383.1764983954373
s 5.463414695106499 -6.413573772516326 11.876988467622825 -6.413573772516326
S 2784.510123856604 360.8477600763064 2784.510123856604 383.1764983954373
z" fill="none" stroke="none" style="animation-play-state:paused" ></path>


<circle cx="0" cy="0" r="8.857001670792398" fill="#e8da8d" opacity="0.9" transform="translate(2770.572021484375 390.08892822265625)" style="opacity:0.9;animation-play-state:paused" ></circle>
<path id="path56" d="M 1731.8241776581106 216.11223375415165
c 0 32.089580083776376 -7.851705765179326 9.21721981129747 -17.068925576476797 9.21721981129747
S 1697.6863265051568 248.20181383792803 1697.6863265051568 216.11223375415165
s 7.851705765179326 -9.21721981129747 17.068925576476797 -9.21721981129747
S 1731.8241776581106 184.02265367037526 1731.8241776581106 216.11223375415165
z" fill="none" stroke="none" style="animation-play-state:paused" ></path>


<circle cx="0" cy="0" r="6.982439411789665" fill="#e8614c" opacity="0.9" transform="translate(1725.0919189453125 231.60787963867188)" style="opacity:0.9;animation-play-state:paused" ></circle>
<path id="path57" d="M 2634.2338998722043 613.8388717653862
c 0 23.53170048432891 -5.7577565014847325 6.759105458264687 -12.51686195974942 6.759105458264687
S 2609.2001759527056 637.3705722497151 2609.2001759527056 613.8388717653862
s 5.7577565014847325 -6.759105458264687 12.51686195974942 -6.759105458264687
S 2634.2338998722043 590.3071712810573 2634.2338998722043 613.8388717653862
z" fill="none" stroke="none" style="animation-play-state:paused" ></path>


<circle cx="0" cy="0" r="6.271559228245033" fill="#2da88b" opacity="0.9" transform="translate(2630.19677734375 625.8566284179688)" style="opacity:0.9;animation-play-state:paused" ></circle>
<path id="path58" d="M 893.8586894739939 746.810726341649
c 0 33.18827180862517 -8.120534591472113 9.532801476945526 -17.65333606841764 9.532801476945526
S 858.5520173371586 779.9989981502741 858.5520173371586 746.810726341649
s 8.120534591472113 -9.532801476945526 17.65333606841764 -9.532801476945526
S 893.8586894739939 713.6224545330239 893.8586894739939 746.810726341649
z" fill="none" stroke="none" style="animation-play-state:paused" ></path>


<circle cx="0" cy="0" r="9.381717483746407" fill="#2da88b" opacity="0.9" transform="translate(891.4349365234375 729.62109375)" style="opacity:0.9;animation-play-state:paused" ></circle>
<path id="path59" d="M 2022.7849454548189 1011.8516237924154
c 0 19.89559096701892 -4.868070130228033 5.714691022441604 -10.582761152669637 5.714691022441604
S 2001.6194231494794 1031.7472147594342 2001.6194231494794 1011.8516237924154
s 4.868070130228033 -5.714691022441604 10.582761152669637 -5.714691022441604
S 2022.7849454548189 991.9560328253964 2022.7849454548189 1011.8516237924154
z" fill="none" stroke="none" style="animation-play-state:paused" ></path>


<circle cx="0" cy="0" r="9.498083165717759" fill="#2da88b" opacity="0.9" transform="translate(2022.5953369140625 1006.236083984375)" style="opacity:0.9;animation-play-state:paused" ></circle>
<path id="path60" d="M 2330.895839423667 756.5702663766871
c 0 32.87240352346364 -8.043247670634718 9.442073352484236 -17.485321023118956 9.442073352484236
S 2295.925197377429 789.4426699001507 2295.925197377429 756.5702663766871
s 8.043247670634718 -9.442073352484236 17.485321023118956 -9.442073352484236
S 2330.895839423667 723.6978628532235 2330.895839423667 756.5702663766871
z" fill="none" stroke="none" style="animation-play-state:paused" ></path>


<circle cx="0" cy="0" r="7.900437901919392" fill="#294b59" opacity="0.9" transform="translate(2326.910400390625 774.07568359375)" style="opacity:0.9;animation-play-state:paused" ></circle>
<path id="path61" d="M 2428.139576280387 65.34506807301568
c 0 34.02037120866046 -8.324133380842452 9.771808751423748 -18.095942132266202 9.771808751423748
S 2391.947692015854 99.36543928167615 2391.947692015854 65.34506807301568
s 8.324133380842452 -9.771808751423748 18.095942132266202 -9.771808751423748
S 2428.139576280387 31.324696864355225 2428.139576280387 65.34506807301568
z" fill="none" stroke="none" style="animation-play-state:paused" ></path>


<circle cx="0" cy="0" r="9.272713634407314" fill="#294b59" opacity="0.9" transform="translate(2393.680419921875 81.88199615478516)" style="opacity:0.9;animation-play-state:paused" ></circle>
<path id="path62" d="M 1843.4703533459513 298.96070495848375
c 0 20.192152013992335 -4.940632939593868 5.799873450827586 -10.740506390421453 5.799873450827586
S 1821.9893405651085 319.15285697247606 1821.9893405651085 298.96070495848375
s 4.940632939593868 -5.799873450827586 10.740506390421453 -5.799873450827586
S 1843.4703533459513 278.76855294449143 1843.4703533459513 298.96070495848375
z" fill="none" stroke="none" style="animation-play-state:paused" ></path>


<circle cx="0" cy="0" r="9.520541960493007" fill="#2da88b" opacity="0.9" transform="translate(1821.990234375 299.1893310546875)" style="opacity:0.9;animation-play-state:paused" ></circle>
<path id="path63" d="M 2440.7854527136287 446.42106861893694
c 0 23.000475925502496 -5.627776024325078 6.60651968072944 -12.23429570505452 6.60651968072944
S 2416.3168613035195 469.4215445444394 2416.3168613035195 446.42106861893694
s 5.627776024325078 -6.60651968072944 12.23429570505452 -6.60651968072944
S 2440.7854527136287 423.42059269343446 2440.7854527136287 446.42106861893694
z" fill="none" stroke="none" style="animation-play-state:paused" ></path>


<circle cx="0" cy="0" r="6.913164077467543" fill="#2da88b" opacity="0.9" transform="translate(2417.10400390625 436.29827880859375)" style="opacity:0.9;animation-play-state:paused" ></circle>
<path id="path64" d="M 924.676889186223 339.0607982186234
c 0 22.91338697903773 -5.606467026785826 6.581504770574667 -12.187971797360493 6.581504770574667
S 900.3009455915019 361.97418519766114 900.3009455915019 339.0607982186234
s 5.606467026785826 -6.581504770574667 12.187971797360493 -6.581504770574667
S 924.676889186223 316.14741123958567 924.676889186223 339.0607982186234
z" fill="none" stroke="none" style="animation-play-state:paused" ></path>


<circle cx="0" cy="0" r="10.184440990320201" fill="#e8da8d" opacity="0.9" transform="translate(901.0838012695312 349.14306640625)" style="opacity:0.9;animation-play-state:paused" ></circle>
<path id="path65" d="M 1838.6965828244086 504.81458765264506
c 0 26.9162241738873 -6.5858846382915734 7.731255879733586 -14.317140518025159 7.731255879733586
S 1810.0623017883584 531.7308118265323 1810.0623017883584 504.81458765264506
s 6.5858846382915734 -7.731255879733586 14.317140518025159 -7.731255879733586
S 1838.6965828244086 477.89836347875774 1838.6965828244086 504.81458765264506
z" fill="none" stroke="none" style="animation-play-state:paused" ></path>


<circle cx="0" cy="0" r="8.726192215119386" fill="#e8da8d" opacity="0.9" transform="translate(1837.669189453125 492.6087951660156)" style="opacity:0.9;animation-play-state:paused" ></circle>
<path id="path66" d="M 2252.0847153763298 337.13424189169103
c 0 24.01411322984805 -5.875793662622394 6.897670821339333 -12.773464483961728 6.897670821339333
S 2226.5377864084066 361.1483551215391 2226.5377864084066 337.13424189169103
s 5.875793662622394 -6.897670821339333 12.773464483961728 -6.897670821339333
S 2252.0847153763298 313.12012866184295 2252.0847153763298 337.13424189169103
z" fill="none" stroke="none" style="animation-play-state:paused" ></path>


<circle cx="0" cy="0" r="9.432818988466822" fill="#e8da8d" opacity="0.9" transform="translate(2228.252685546875 349.5341491699219)" style="opacity:0.9;animation-play-state:paused" ></circle>
<path id="path67" d="M 1428.4033990410092 70.60553122473407
c 0 33.21053325932723 -8.125981542175811 9.539195723423779 -17.66517726559959 9.539195723423779
S 1393.07304450981 103.81606448406129 1393.07304450981 70.60553122473407
s 8.125981542175811 -9.539195723423779 17.66517726559959 -9.539195723423779
S 1428.4033990410092 37.39499796540684 1428.4033990410092 70.60553122473407
z" fill="none" stroke="none" style="animation-play-state:paused" ></path>


<circle cx="0" cy="0" r="8.700901803642683" fill="#e8da8d" opacity="0.9" transform="translate(1428.258056640625 77.37754821777344)" style="opacity:0.9;animation-play-state:paused" ></circle>
<path id="path68" d="M 743.3135794501486 138.43516354333005
c 0 26.46767514977831 -6.4761332813287344 7.602417330255472 -14.078550611584205 7.602417330255472
S 715.1564782269802 164.90283869310835 715.1564782269802 138.43516354333005
s 6.4761332813287344 -7.602417330255472 14.078550611584205 -7.602417330255472
S 743.3135794501486 111.96748839355175 743.3135794501486 138.43516354333005
z" fill="none" stroke="none" style="animation-play-state:paused" ></path>


<circle cx="0" cy="0" r="6.515980882660897" fill="#2da88b" opacity="0.9" transform="translate(715.923095703125 127.33705139160156)" style="opacity:0.9;animation-play-state:paused" ></circle>
<path id="path69" d="M 1794.0212896977978 694.2004510326949
c 0 20.618244916637355 -5.0448897136453095 5.922261837757538 -10.967151551402846 5.922261837757538
S 1772.0869865949921 714.8186959493322 1772.0869865949921 694.2004510326949
s 5.0448897136453095 -5.922261837757538 10.967151551402846 -5.922261837757538
S 1794.0212896977978 673.5822061160576 1794.0212896977978 694.2004510326949
z" fill="none" stroke="none" style="animation-play-state:paused" ></path>


<circle cx="0" cy="0" r="6.513951201908504" fill="#f4a358" opacity="0.9" transform="translate(1794.01904296875 693.6234130859375)" style="opacity:0.9;animation-play-state:paused" ></circle>
<path id="path70" d="M 1862.6733644497106 951.0770757627108
c 0 36.36992724443431 -8.899024751297755 10.446681229784323 -19.345705981082077 10.446681229784323
S 1823.9819524875463 987.4470030071451 1823.9819524875463 951.0770757627108
s 8.899024751297755 -10.446681229784323 19.345705981082077 -10.446681229784323
S 1862.6733644497106 914.7071485182765 1862.6733644497106 951.0770757627108
z" fill="none" stroke="none" style="animation-play-state:paused" ></path>


<circle cx="0" cy="0" r="9.31459005069103" fill="#e8da8d" opacity="0.9" transform="translate(1862.461669921875 959.44921875)" style="opacity:0.9;animation-play-state:paused" ></circle>
<path id="path71" d="M 1636.401109886796 861.9149379550365
c 0 30.567514892307734 -7.479285558756147 8.780030873322435 -16.25931643207858 8.780030873322435
S 1603.8824770226388 892.4824528473442 1603.8824770226388 861.9149379550365
s 7.479285558756147 -8.780030873322435 16.25931643207858 -8.780030873322435
S 1636.401109886796 831.3474230627288 1636.401109886796 861.9149379550365
z" fill="none" stroke="none" style="animation-play-state:paused" ></path>


<circle cx="0" cy="0" r="10.07139969407575" fill="#f4a358" opacity="0.9" transform="translate(1607.7174072265625 845.66162109375)" style="opacity:0.9;animation-play-state:paused" ></circle>
<path id="path72" d="M 1266.165046140578 602.4685113780212
c 0 21.70016906692588 -5.309615835524418 6.233027285180839 -11.542643120705256 6.233027285180839
S 1243.0797598991676 624.1686804449471 1243.0797598991676 602.4685113780212
s 5.309615835524418 -6.233027285180839 11.542643120705256 -6.233027285180839
S 1266.165046140578 580.7683423110952 1266.165046140578 602.4685113780212
z" fill="none" stroke="none" style="animation-play-state:paused" ></path>


<circle cx="0" cy="0" r="8.815609589501271" fill="#2da88b" opacity="0.9" transform="translate(1251.8714599609375 609.5820922851562)" style="opacity:0.9;animation-play-state:paused" ></circle>
<path id="path73" d="M 579.863023172494 735.7684394334576
c 0 26.043555121495874 -6.372359231855373 7.480595620004134 -13.852954851859508 7.480595620004134
S 552.1571134687749 761.8119945549535 552.1571134687749 735.7684394334576
s 6.372359231855373 -7.480595620004134 13.852954851859508 -7.480595620004134
S 579.863023172494 709.7248843119618 579.863023172494 735.7684394334576
z" fill="none" stroke="none" style="animation-play-state:paused" ></path>


<circle cx="0" cy="0" r="10.069925773886464" fill="#2da88b" opacity="0.9" transform="translate(553.6324462890625 748.7057495117188)" style="opacity:0.9;animation-play-state:paused" ></circle>
<path id="path74" d="M 600.045055274607 607.3659438325734
c 0 22.61084061022376 -5.532439723778153 6.494603154000442 -12.027042877778594 6.494603154000442
S 575.9909695190497 629.9767844427972 575.9909695190497 607.3659438325734
s 5.532439723778153 -6.494603154000442 12.027042877778594 -6.494603154000442
S 600.045055274607 584.7551032223496 600.045055274607 607.3659438325734
z" fill="none" stroke="none" style="animation-play-state:paused" ></path>


<circle cx="0" cy="0" r="10.757212833300784" fill="#e8614c" opacity="0.9" transform="translate(599.6384887695312 599.2628784179688)" style="opacity:0.9;animation-play-state:paused" ></circle>
<path id="path75" d="M 2217.495576389541 635.9169894657265
c 0 31.726608835600604 -7.762893651263977 9.112962112353365 -16.87585576361734 9.112962112353365
S 2183.743864862306 667.6435983013271 2183.743864862306 635.9169894657265
s 7.762893651263977 -9.112962112353365 16.87585576361734 -9.112962112353365
S 2217.495576389541 604.1903806301259 2217.495576389541 635.9169894657265
z" fill="none" stroke="none" style="animation-play-state:paused" ></path>


<circle cx="0" cy="0" r="7.0119650565521825" fill="#e8da8d" opacity="0.9" transform="translate(2215.822509765625 620.3809814453125)" style="opacity:0.9;animation-play-state:paused" ></circle>
<path id="path76" d="M 2458.470495371874 973.2156826454737
c 0 20.20534448231301 -4.943860883970204 5.803662776834588 -10.747523660804791 5.803662776834588
S 2436.9754480502647 993.4210271277867 2436.9754480502647 973.2156826454737
s 4.943860883970204 -5.803662776834588 10.747523660804791 -5.803662776834588
S 2458.470495371874 953.0103381631608 2458.470495371874 973.2156826454737
z" fill="none" stroke="none" style="animation-play-state:paused" ></path>


<circle cx="0" cy="0" r="6.714533088518843" fill="#294b59" opacity="0.9" transform="translate(2443.39794921875 965.3157958984375)" style="opacity:0.9;animation-play-state:paused" ></circle>
<path id="path77" d="M 692.5207319288116 698.5934760888416
c 0 37.422828612466176 -9.156649554114063 10.749110346133902 -19.905759900247965 10.749110346133902
S 652.7092121283157 736.0163047013078 652.7092121283157 698.5934760888416
s 9.156649554114063 -10.749110346133902 19.905759900247965 -10.749110346133902
S 692.5207319288116 661.1706474763754 692.5207319288116 698.5934760888416
z" fill="none" stroke="none" style="animation-play-state:paused" ></path>


<circle cx="0" cy="0" r="7.969512960048303" fill="#294b59" opacity="0.9" transform="translate(671.74609375 687.7875366210938)" style="opacity:0.9;animation-play-state:paused" ></circle>
<path id="path78" d="M 2602.253646569813 669.5781286654133
c 0 30.09508656923711 -7.363691394600569 8.644333376270234 -16.008024770870804 8.644333376270234
S 2570.237597028072 699.6732152346503 2570.237597028072 669.5781286654133
s 7.363691394600569 -8.644333376270234 16.008024770870804 -8.644333376270234
S 2602.253646569813 639.4830420961762 2602.253646569813 669.5781286654133
z" fill="none" stroke="none" style="animation-play-state:paused" ></path>


<circle cx="0" cy="0" r="10.058341134301884" fill="#2da88b" opacity="0.9" transform="translate(2570.375 675.8291625976562)" style="opacity:0.9;animation-play-state:paused" ></circle>
<path id="path79" d="M 360.478465650132 306.9306661335093
c 0 35.31825776796943 -8.641701368758477 10.144605954629517 -18.786307323387994 10.144605954629517
S 322.9058510033561 342.24892390147875 322.9058510033561 306.9306661335093
s 8.641701368758477 -10.144605954629517 18.786307323387994 -10.144605954629517
S 360.478465650132 271.61240836553986 360.478465650132 306.9306661335093
z" fill="none" stroke="none" style="animation-play-state:paused" ></path>


<circle cx="0" cy="0" r="10.487814135891611" fill="#294b59" opacity="0.9" transform="translate(343.90618896484375 296.41064453125)" style="opacity:0.9;animation-play-state:paused" ></circle>
<path id="path80" d="M 2371.3226653212414 528.6043352324838
c 0 23.378373091527564 -5.720240224522701 6.715064611396215 -12.435304835918917 6.715064611396215
S 2346.4520556494035 551.9827083240114 2346.4520556494035 528.6043352324838
s 5.720240224522701 -6.715064611396215 12.435304835918917 -6.715064611396215
S 2371.3226653212414 505.2259621409562 2371.3226653212414 528.6043352324838
z" fill="none" stroke="none" style="animation-play-state:paused" ></path>


<circle cx="0" cy="0" r="10.31391455211407" fill="#f4a358" opacity="0.9" transform="translate(2347.234619140625 538.8306274414062)" style="opacity:0.9;animation-play-state:paused" ></circle>
<path id="path81" d="M 79.06657391641723 992.0355115426697
c 0 34.425179219569614 -8.42318214946916 9.888083392855101 -18.31126554232426 9.888083392855101
S 42.4440428317687 1026.4606907622394 42.4440428317687 992.0355115426697
s 8.42318214946916 -9.888083392855101 18.31126554232426 -9.888083392855101
S 79.06657391641723 957.6103323231001 79.06657391641723 992.0355115426697
z" fill="none" stroke="none" style="animation-play-state:paused" ></path>


<circle cx="0" cy="0" r="11.053944963816893" fill="#f4a358" opacity="0.9" transform="translate(68.37432861328125 1005.703125)" style="opacity:0.9;animation-play-state:paused" ></circle>
<path id="path82" d="M 405.86881810169496 151.73915418553932
c 0 29.313355886327866 -7.172416865803626 8.419793712030344 -15.59221057783397 8.419793712030344
S 374.68439694602705 181.05251007186718 374.68439694602705 151.73915418553932
s 7.172416865803626 -8.419793712030344 15.59221057783397 -8.419793712030344
S 405.86881810169496 122.42579829921145 405.86881810169496 151.73915418553932
z" fill="none" stroke="none" style="animation-play-state:paused" ></path>


<circle cx="0" cy="0" r="6.89755585989379" fill="#e8614c" opacity="0.9" transform="translate(377.3650817871094 136.20565795898438)" style="opacity:0.9;animation-play-state:paused" ></circle>
<path id="path83" d="M 53.85796479034649 611.2897740593384
c 0 29.140634200428174 -7.13015517670051 8.370182163952773 -15.500337340653283 8.370182163952773
S 22.85729010903993 640.4304082597665 22.85729010903993 611.2897740593384
s 7.13015517670051 -8.370182163952773 15.500337340653283 -8.370182163952773
S 53.85796479034649 582.1491398589102 53.85796479034649 611.2897740593384
z" fill="none" stroke="none" style="animation-play-state:paused" ></path>


<circle cx="0" cy="0" r="6.906783306259323" fill="#e8da8d" opacity="0.9" transform="translate(24.23985481262207 597.345947265625)" style="opacity:0.9;animation-play-state:paused" ></circle>
<path id="path84" d="M 2479.5117940971295 144.58264825779014
c 0 24.162697169357045 -5.912149307395872 6.940349186942981 -12.852498494338853 6.940349186942981
S 2453.806797108452 168.74534542714719 2453.806797108452 144.58264825779014
s 5.912149307395872 -6.940349186942981 12.852498494338853 -6.940349186942981
S 2479.5117940971295 120.4199510884331 2479.5117940971295 144.58264825779014
z" fill="none" stroke="none" style="animation-play-state:paused" ></path>


<circle cx="0" cy="0" r="6.290972786898513" fill="#e8614c" opacity="0.9" transform="translate(2461.801025390625 153.7743377685547)" style="opacity:0.9;animation-play-state:paused" ></circle>
<path id="path85" d="M 464.39474210412266 44.32902788454321
c 0 30.662938285657546 -7.502633835852377 8.807439720348444 -16.31007355620082 8.807439720348444
S 431.7745949917211 74.99196617020075 431.7745949917211 44.32902788454321
s 7.502633835852377 -8.807439720348444 16.31007355620082 -8.807439720348444
S 464.39474210412266 13.666089598885662 464.39474210412266 44.32902788454321
z" fill="none" stroke="none" style="animation-play-state:paused" ></path>


<circle cx="0" cy="0" r="8.661769026163219" fill="#2da88b" opacity="0.9" transform="translate(434.2628479003906 60.411216735839844)" style="opacity:0.9;animation-play-state:paused" ></circle>
<path id="path86" d="M 840.9602008174794 239.56403175938752
c 0 29.65452711739605 -7.255894932979884 8.517789703932909 -15.773684636912792 8.517789703932909
S 809.4128315436539 269.21855887678356 809.4128315436539 239.56403175938752
s 7.255894932979884 -8.517789703932909 15.773684636912792 -8.517789703932909
S 840.9602008174794 209.90950464199148 840.9602008174794 239.56403175938752
z" fill="none" stroke="none" style="animation-play-state:paused" ></path>


<circle cx="0" cy="0" r="7.714085408745027" fill="#e8614c" opacity="0.9" transform="translate(840.81982421875 245.81570434570312)" style="opacity:0.9;animation-play-state:paused" ></circle>
<path id="path87" d="M 2334.471880445501 498.07961894460993
c 0 29.425611779978475 -7.199883733398988 8.452037426164031 -15.651921159563019 8.452037426164031
S 2303.1680381263745 527.5052307245884 2303.1680381263745 498.07961894460993
s 7.199883733398988 -8.452037426164031 15.651921159563019 -8.452037426164031
S 2334.471880445501 468.6540071646315 2334.471880445501 498.07961894460993
z" fill="none" stroke="none" style="animation-play-state:paused" ></path>


<circle cx="0" cy="0" r="6.9571551351259355" fill="#2da88b" opacity="0.9" transform="translate(2317.454833984375 506.7059020996094)" style="opacity:0.9;animation-play-state:paused" ></circle>
<path id="path88" d="M 2970.986678367985 562.9943745004069
c 0 35.28905680673779 -8.634556452712438 10.136218444488515 -18.77077489720095 10.136218444488515
S 2933.4451285735827 598.2834313071447 2933.4451285735827 562.9943745004069
s 8.634556452712438 -10.136218444488515 18.77077489720095 -10.136218444488515
S 2970.986678367985 527.7053176936691 2970.986678367985 562.9943745004069
z" fill="none" stroke="none" style="animation-play-state:paused" ></path>


<circle cx="0" cy="0" r="8.431851007125125" fill="#f4a358" opacity="0.9" transform="translate(2970.361572265625 550.4140625)" style="opacity:0.9;animation-play-state:paused" ></circle>
<path id="path89" d="M 798.9374760303634 318.58014594637956
c 0 21.00648992971301 -5.139885833865948 6.033779022364375 -11.173664856230323 6.033779022364375
S 776.5901463179028 339.58663587609254 776.5901463179028 318.58014594637956
s 5.139885833865948 -6.033779022364375 11.173664856230323 -6.033779022364375
S 798.9374760303634 297.5736560166666 798.9374760303634 318.58014594637956
z" fill="none" stroke="none" style="animation-play-state:paused" ></path>


<circle cx="0" cy="0" r="10.105320329659959" fill="#f4a358" opacity="0.9" transform="translate(782.5452880859375 327.4053649902344)" style="opacity:0.9;animation-play-state:paused" ></circle>
<path id="path90" d="M 2633.8344794669424 525.8775290750286
c 0 36.89811160632522 -9.028261350483831 10.59839375926363 -19.62665510974746 10.59839375926363
S 2594.5811692474476 562.7756406813538 2594.5811692474476 525.8775290750286
s 9.028261350483831 -10.59839375926363 19.62665510974746 -10.59839375926363
S 2633.8344794669424 488.9794174687034 2633.8344794669424 525.8775290750286
z" fill="none" stroke="none" style="animation-play-state:paused" ></path>


<circle cx="0" cy="0" r="10.955925310016179" fill="#e8614c" opacity="0.9" transform="translate(2594.593505859375 528.0352783203125)" style="opacity:0.9;animation-play-state:paused" ></circle>
<path id="path91" d="M 1149.0844786704984 136.8781302339754
c 0 23.092709858978935 -5.6503439016650585 6.633012406302461 -12.28335630796752 6.633012406302461
S 1124.5177660545633 159.97084009295435 1124.5177660545633 136.8781302339754
s 5.6503439016650585 -6.633012406302461 12.28335630796752 -6.633012406302461
S 1149.0844786704984 113.78542037499648 1149.0844786704984 136.8781302339754
z" fill="none" stroke="none" style="animation-play-state:paused" ></path>


<circle cx="0" cy="0" r="6.416237398892218" fill="#294b59" opacity="0.9" transform="translate(1137.6593017578125 130.15655517578125)" style="opacity:0.9;animation-play-state:paused" ></circle>
<path id="path92" d="M 2633.873232835421 900.4917912437686
c 0 28.92662773646163 -7.077791892964014 8.30871222217515 -15.386504115139164 8.30871222217515
S 2603.100224605142 929.4184189802303 2603.100224605142 900.4917912437686
s 7.077791892964014 -8.30871222217515 15.386504115139164 -8.30871222217515
S 2633.873232835421 871.5651635073069 2633.873232835421 900.4917912437686
z" fill="none" stroke="none" style="animation-play-state:paused" ></path>


<circle cx="0" cy="0" r="6.251208198707133" fill="#e8614c" opacity="0.9" transform="translate(2616.40771484375 891.782470703125)" style="opacity:0.9;animation-play-state:paused" ></circle>
<path id="path93" d="M 1373.6935694410404 433.6802155529739
c 0 22.05204005206008 -5.395711927631721 6.334096610698108 -11.729808538329829 6.334096610698108
S 1350.233952364381 455.73225560503397 1350.233952364381 433.6802155529739
s 5.395711927631721 -6.334096610698108 11.729808538329829 -6.334096610698108
S 1373.6935694410404 411.6281755009138 1373.6935694410404 433.6802155529739
z" fill="none" stroke="none" style="animation-play-state:paused" ></path>


<circle cx="0" cy="0" r="9.819612431357665" fill="#e8614c" opacity="0.9" transform="translate(1351.5980224609375 422.54736328125)" style="opacity:0.9;animation-play-state:paused" ></circle>
<path id="path94" d="M 1626.8507485470875 912.4310224822618
c 0 19.50409300683762 -4.77227807614112 5.602239480687402 -10.374517556828522 5.602239480687402
S 1606.1017134334304 931.9351154890994 1606.1017134334304 912.4310224822618
s 4.77227807614112 -5.602239480687402 10.374517556828522 -5.602239480687402
S 1626.8507485470875 892.9269294754242 1626.8507485470875 912.4310224822618
z" fill="none" stroke="none" style="animation-play-state:paused" ></path>


<circle cx="0" cy="0" r="11.159479074612172" fill="#294b59" opacity="0.9" transform="translate(1618.78857421875 906.13037109375)" style="opacity:0.9;animation-play-state:paused" ></circle>
<path id="path95" d="M 2994.971332164551 73.30691668699353
c 0 30.55847260120002 -7.477073083272344 8.777433619493623 -16.254506702765966 8.777433619493623
S 2962.462318759019 103.86538928819355 2962.462318759019 73.30691668699353
s 7.477073083272344 -8.777433619493623 16.254506702765966 -8.777433619493623
S 2994.971332164551 42.74844408579351 2994.971332164551 73.30691668699353
z" fill="none" stroke="none" style="animation-play-state:paused" ></path>


<circle cx="0" cy="0" r="8.957718619774695" fill="#e8614c" opacity="0.9" transform="translate(2983.755126953125 62.52461624145508)" style="opacity:0.9;animation-play-state:paused" ></circle>
<path id="path96" d="M 2656.6946697528433 620.0396172709615
c 0 24.7929207073913 -6.0663529390425515 7.121370841484736 -13.187723780527287 7.121370841484736
S 2630.3192221917884 644.8325379783528 2630.3192221917884 620.0396172709615
s 6.0663529390425515 -7.121370841484736 13.187723780527287 -7.121370841484736
S 2656.6946697528433 595.2466965635701 2656.6946697528433 620.0396172709615
z" fill="none" stroke="none" style="animation-play-state:paused" ></path>


<circle cx="0" cy="0" r="10.415464967534898" fill="#f4a358" opacity="0.9" transform="translate(2631.419677734375 608.3613891601562)" style="opacity:0.9;animation-play-state:paused" ></circle>
<path id="path97" d="M 2208.173682603706 710.1591028301808
c 0 31.517318227868767 -7.711684247244484 9.052846725026136 -16.76453097227062 9.052846725026136
S 2174.6446206591645 741.6764210580495 2174.6446206591645 710.1591028301808
s 7.711684247244484 -9.052846725026136 16.76453097227062 -9.052846725026136
S 2208.173682603706 678.6417846023121 2208.173682603706 710.1591028301808
z" fill="none" stroke="none" style="animation-play-state:paused" ></path>


<circle cx="0" cy="0" r="5.970318481903438" fill="#2da88b" opacity="0.9" transform="translate(2207.89697265625 701.5546875)" style="opacity:0.9;animation-play-state:paused" ></circle>
<path id="path98" d="M 109.48830665043292 612.1105334563872
c 0 28.2136543999625 -6.9033409702035895 8.103922008499868 -15.007262978703457 8.103922008499868
S 79.47378069302601 640.3241878563497 79.47378069302601 612.1105334563872
s 6.9033409702035895 -8.103922008499868 15.007262978703457 -8.103922008499868
S 109.48830665043292 583.8968790564247 109.48830665043292 612.1105334563872
z" fill="none" stroke="none" style="animation-play-state:paused" ></path>


<circle cx="0" cy="0" r="8.420641161809911" fill="#2da88b" opacity="0.9" transform="translate(79.66018676757812 605.2568969726562)" style="opacity:0.9;animation-play-state:paused" ></circle>
<path id="path99" d="M 2717.244633772611 167.07827599189736
c 0 22.724232749217784 -5.560184608851159 6.527173236477449 -12.087357845328608 6.527173236477449
S 2693.0699180819533 189.80250874111513 2693.0699180819533 167.07827599189736
s 5.560184608851159 -6.527173236477449 12.087357845328608 -6.527173236477449
S 2717.244633772611 144.35404324267958 2717.244633772611 167.07827599189736
z" fill="none" stroke="none" style="animation-play-state:paused" ></path>


<circle cx="0" cy="0" r="9.153790107156341" fill="#294b59" opacity="0.9" transform="translate(2693.13525390625 170.93170166015625)" style="opacity:0.9;animation-play-state:paused" ></circle></g></svg>