<svg xmlns="http://www.w3.org/2000/svg" version="1.1" xmlns:xlink="http://www.w3.org/1999/xlink" xmlns:svgjs="http://svgjs.com/svgjs" width="1440" height="560" preserveAspectRatio="none" viewBox="0 0 1440 560"><g mask="url(&quot;#SvgjsMask1003&quot;)" fill="none"><rect width="1440" height="560" x="0" y="0" fill="#0e2a47"></rect><path d="M 0,146 C 57.6,128.4 172.8,46 288,58 C 403.2,70 460.8,215.4 576,206 C 691.2,196.6 748.8,11.6 864,11 C 979.2,10.4 1036.8,192.8 1152,203 C 1267.2,213.2 1382.4,90.2 1440,62L1440 560L0 560z" fill="rgba(24, 101, 126, 1)"></path><path d="M 0,520 C 96,488 288,354 480,360 C 672,366 768,538.8 960,550 C 1152,561.2 1344,442.8 1440,416L1440 560L0 560z" fill="rgba(34, 171, 147, 1)"></path></g><defs><mask id="SvgjsMask1003"><rect width="1440" height="560" fill="#ffffff"></rect></mask></defs></svg>